# xmcd
#
# Track frame offsets:
#	150
#	13462
#	25565
#	40825
#	54310
#	71007
#	85047
#	98207
#	113877
#	127117
#
# Disc length: 1857 seconds
#
# Revision: 2
# Processed by: cddbd v1.5.2PL0 Copyright (c) Steve Scherf et al.
# Submitted via: audiograbber 1.83.01
#
DISCID=7f073f0a
DTITLE=George Hug - Back From Nashville
DYEAR=1988
DGENRE=Country
TTITLE0=Old Continent
TTITLE1=If Ever Need A Lady I'll Call You
TTITLE2=Friendship
TTITLE3=Where We Live
TTITLE4=I Feel So Blue
TTITLE5=Flowers
TTITLE6=Sing Me Back Home
TTITLE7=My Love
TTITLE8=Each Season Changes You
TTITLE9=Bad Cowboy
EXTD=
EXTT0=
EXTT1=
EXTT2=
EXTT3=
EXTT4=
EXTT5=
EXTT6=
EXTT7=
EXTT8=
EXTT9=
PLAYORDER=
